<svg width="16" height="17" viewBox="0 0 16 17" fill="none" xmlns="http://www.w3.org/2000/svg">
<g clip-path="url(#clip0_64_11687)">
<path d="M12 5.83335H11.3333V4.50002C11.3333 2.66002 9.83996 1.16669 7.99996 1.16669C6.15996 1.16669 4.66663 2.66002 4.66663 4.50002V5.83335H3.99996C3.26663 5.83335 2.66663 6.43335 2.66663 7.16669V13.8334C2.66663 14.5667 3.26663 15.1667 3.99996 15.1667H12C12.7333 15.1667 13.3333 14.5667 13.3333 13.8334V7.16669C13.3333 6.43335 12.7333 5.83335 12 5.83335ZM7.99996 11.8334C7.26663 11.8334 6.66663 11.2334 6.66663 10.5C6.66663 9.76669 7.26663 9.16669 7.99996 9.16669C8.73329 9.16669 9.33329 9.76669 9.33329 10.5C9.33329 11.2334 8.73329 11.8334 7.99996 11.8334ZM10.0666 5.83335H5.93329V4.50002C5.93329 3.36002 6.85996 2.43335 7.99996 2.43335C9.13996 2.43335 10.0666 3.36002 10.0666 4.50002V5.83335Z" fill="#40464C"/>
</g>
<defs>
<clipPath id="clip0_64_11687">
<rect width="16" height="16" fill="white" transform="translate(0 0.5)"/>
</clipPath>
</defs>
</svg>
